<?xml version="1.0" encoding="UTF-8"?>
<svg version="1.1" xmlns="http://www.w3.org/2000/svg" width="3250" height="750">
<path d="M0 0 C1072.5 0 2145 0 3250 0 C3250 247.5 3250 495 3250 750 C2177.5 750 1105 750 0 750 C0 502.5 0 255 0 0 Z " fill="#3C3C3B" transform="translate(0,0)"/>
<path d="M0 0 C424.05 0 848.1 0 1285 0 C1285 247.5 1285 495 1285 750 C860.95 750 436.9 750 0 750 C0 502.5 0 255 0 0 Z " fill="#EAE152" transform="translate(0,0)"/>
<path d="M0 0 C39.27 0 78.54 0 119 0 C128.9 25.74 128.9 25.74 139 52 C140.98 56.95 142.96 61.9 145 67 C147.6875 74.1875 147.6875 74.1875 148.48120117 76.32495117 C151.49432526 84.41100652 154.68939812 92.42705717 157.8659668 100.44995117 C160.45180332 106.9969103 162.97007945 113.56425359 165.42922974 120.1598053 C169.18857799 130.21409894 173.07632779 140.21963583 176.94403076 150.23260498 C177.90648585 152.72447901 178.86856071 155.21649512 179.82989502 157.70880127 C184.85403646 170.73403764 189.89049586 183.75403244 195 196.74609375 C195.5675853 198.19123604 195.5675853 198.19123604 196.14663696 199.66557312 C197.9003388 204.12983739 199.65905714 208.59199085 201.42724609 213.05053711 C202.04283931 214.6143434 202.65824851 216.17822215 203.2734375 217.7421875 C203.55356689 218.44254623 203.83369629 219.14290497 204.12231445 219.86448669 C205.24860535 222.7406319 206 224.8798195 206 228 C206.66 228 207.32 228 208 228 C208.09410156 227.18917969 208.18820312 226.37835938 208.28515625 225.54296875 C209.16254568 221.19437744 210.73023463 217.39295041 212.4375 213.3125 C215.58465094 205.61292897 218.5726091 197.87135686 221.4375 190.0625 C225.73998554 178.36389883 230.10702921 166.69047418 234.50662231 155.02804565 C235.2392369 153.08540853 235.97109711 151.1424867 236.70211792 149.19924927 C240.77890829 138.36408668 244.91638409 127.56116101 249.2850647 116.83973694 C251.49453842 111.38763009 253.4825829 105.88217532 255.375 100.3125 C258.3897694 91.51618342 261.80100794 82.91484235 265.29931641 74.30053711 C268.28616474 66.9018435 271.01557132 59.45006953 273.59545898 51.90112305 C275.28484311 46.97738819 277.09055049 42.12982837 279.0625 37.3125 C281.47362983 31.40651443 283.66178594 25.45467538 285.73266602 19.4230957 C287.99442966 12.87253916 290.50505578 6.48685498 293 0 C332.27 0 371.54 0 412 0 C412 116.49 412 232.98 412 353 C379.33 353 346.66 353 313 353 C312.505 259.445 312.505 259.445 312 164 C306.06 181.49 300.12 198.98 294 217 C286.625 238.0625 286.625 238.0625 283.234375 247.703125 C279.51122363 258.3476904 275.95073462 269.0440857 272.40576172 279.74902344 C267.27873814 295.22536814 261.99223959 310.64586192 256.67108154 326.05639648 C256.0187618 327.9456616 255.36703808 329.83513248 254.71533203 331.72460938 C253.58319684 335.00465281 252.44865863 338.28384833 251.3125 341.5625 C250.98540039 342.50843018 250.65830078 343.45436035 250.32128906 344.42895508 C250.02577148 345.27868896 249.73025391 346.12842285 249.42578125 347.00390625 C249.04546753 348.09940796 249.04546753 348.09940796 248.6574707 349.21704102 C248 351 248 351 247 353 C219.94 353 192.88 353 165 353 C157.60917802 332.53310837 150.28312051 312.15254943 143.484375 291.5 C139.11992916 278.28973043 134.652506 265.11404141 130.1875 251.9375 C129.97265079 251.30325104 129.75780159 250.66900208 129.5364418 250.01553345 C123.07185019 230.93313202 116.52949978 211.87923379 109.84448242 192.87280273 C109.55984634 192.06238525 109.27521027 191.25196777 108.98194885 190.41699219 C108.47475763 188.97387083 107.96638918 187.53116192 107.4561615 186.08911133 C104.5278052 177.76103015 101.79279883 169.37839649 99 161 C98.67 224.36 98.34 287.72 98 353 C65.66 353 33.32 353 0 353 C0 236.51 0 120.02 0 0 Z " fill="#E9E052" transform="translate(1473,197)"/>
<path d="M0 0 C178.06408706 0 178.06408706 0 207 10 C207.78407227 10.25620117 208.56814453 10.51240234 209.37597656 10.77636719 C251.61214356 24.5780175 285.74054601 53.34031251 306.0390625 92.88671875 C319.37044766 119.94914516 325.0999177 149.93764265 324 180 C323.97389648 180.83160645 323.94779297 181.66321289 323.92089844 182.52001953 C323.72854534 188.3558357 323.41824255 194.17609841 323 200 C322.86851562 201.83884766 322.86851562 201.83884766 322.734375 203.71484375 C320.85086006 221.91533052 314.89289011 239.86414559 306.86523438 256.23291016 C306.13157023 257.73129081 305.42942901 259.24504226 304.734375 260.76171875 C298.22721852 274.62379505 289.39957624 286.8326698 279 298 C278.50741699 298.53109375 278.01483398 299.0621875 277.50732422 299.609375 C245.7027903 333.52301856 200.54667545 349.74666604 155 353 C103.85 353 52.7 353 0 353 C0 236.51 0 120.02 0 0 Z " fill="#E9E052" transform="translate(2214,197)"/>
<path d="M0 0 C28.38 0 56.76 0 86 0 C109.54809926 35.83406409 109.54809926 35.83406409 118.08325195 48.84643555 C118.90962227 50.10598701 119.73603933 51.36550781 120.5625 52.625 C121.01748871 53.31840485 121.47247742 54.01180969 121.94125366 54.72622681 C127.25962971 62.82807957 132.59910648 70.91508341 137.984375 78.97265625 C138.47594589 79.70836853 138.96751678 80.44408081 139.47398376 81.2020874 C141.80173105 84.68441297 144.13266307 88.16454105 146.46899414 91.64111328 C151.21776991 98.72305924 155.82509224 105.8732737 160.31887817 113.11972046 C164.08300099 119.17363621 168.0067767 125.11039897 171.98535156 131.02490234 C174.14601682 134.23781685 176.29757406 137.45682152 178.44921875 140.67578125 C178.90017914 141.35025299 179.35113953 142.02472473 179.81576538 142.71963501 C185.96115159 151.92189355 192.01970257 161.18150109 198.07885742 170.44067383 C207.63337559 185.01942119 217.32981428 199.49472142 227 214 C227.495 108.07 227.495 108.07 228 0 C256.38 0 284.76 0 314 0 C314 115.83 314 231.66 314 351 C285.62 351 257.24 351 228 351 C206.74025713 327.68286266 206.74025713 327.68286266 199.94955444 309.36618042 C197.80571839 304.02398764 194.36412206 299.61965542 191 295 C188.7547826 291.69251044 186.54955338 288.35862452 184.33984375 285.02734375 C183.12231397 283.20209416 181.90420682 281.37722959 180.68554688 279.55273438 C180.06929443 278.62936279 179.45304199 277.70599121 178.81811523 276.75463867 C177.56299306 274.87448097 176.30745824 272.99459867 175.05151367 271.11499023 C163.21006201 253.39215568 163.21006201 253.39215568 159.46875 247.44921875 C154.61713796 239.74371728 149.48859111 232.21731634 144.42199707 224.65240479 C135.47945061 211.29552903 126.57974887 197.92520293 117.98828125 184.33911133 C110.78723159 172.99958288 103.28339467 161.85980527 95.80566406 150.70166016 C95.29625778 149.94087662 94.7868515 149.18009308 94.26200867 148.39625549 C93.29717799 146.95582301 92.33125215 145.51612331 91.36408997 144.07725525 C88.11110123 139.22220246 88.11110123 139.22220246 87 137 C86.67 207.62 86.34 278.24 86 351 C57.62 351 29.24 351 0 351 C0 235.17 0 119.34 0 0 Z " fill="#3C3C3C" transform="translate(211,199)"/>
<path d="M0 0 C37.29 0 74.58 0 113 0 C118.61923494 13.48616386 118.61923494 13.48616386 120.33520508 18.37402344 C120.72020676 19.46305969 121.10520844 20.55209595 121.50187683 21.6741333 C121.89957779 22.80776306 122.29727875 23.94139282 122.70703125 25.109375 C123.58693843 27.59480472 124.46767753 30.07991675 125.35009766 32.56445312 C125.57177833 33.18918644 125.793459 33.81391975 126.02185726 34.45758438 C128.21986379 40.64084464 130.4825804 46.79939543 132.76171875 52.953125 C133.15718399 54.02145065 133.55264923 55.08977631 133.96009827 56.19047546 C134.77793122 58.39853115 135.59607656 60.60647116 136.41452026 62.81430054 C145.22413756 86.5909535 153.85860449 110.42727228 162.41000366 134.29785156 C163.84435644 138.30164532 165.27920866 142.3052596 166.71484375 146.30859375 C166.94473181 146.94964931 167.17461987 147.59070488 167.41147423 148.25118637 C172.05450841 161.19310496 176.7793699 174.10396495 181.57788086 186.98901367 C184.22332505 194.102611 186.79254284 201.23619212 189.28125 208.40625 C193.10197264 219.39900119 197.14474335 230.30684407 201.19094849 241.21820068 C212.18877078 270.89014319 222.91705187 300.65675218 233.57643127 330.45169067 C233.9695903 331.55028412 234.36274933 332.64887756 234.76782227 333.78076172 C235.32519577 335.34041656 235.32519577 335.34041656 235.89382935 336.93157959 C236.64638908 339.0191143 237.40854606 341.10320864 238.1791687 343.18414307 C238.54664215 344.17670105 238.9141156 345.16925903 239.29272461 346.19189453 C239.78620644 347.51158737 239.78620644 347.51158737 240.28965759 348.85794067 C241 351 241 351 241 353 C206.68 353 172.36 353 137 353 C132.38 338.81 127.76 324.62 123 310 C121.68 306.04 120.36 302.08 119 298 C119 297.34 119 296.68 119 296 C77.42 296 35.84 296 -7 296 C-7.66 298.97 -8.32 301.94 -9 305 C-14.28 320.84 -19.56 336.68 -25 353 C-58.99 353 -92.98 353 -128 353 C-125.10793991 341.43175964 -120.64193607 330.2902361 -116.43066406 319.15429688 C-114.12581348 313.04464365 -111.88318124 306.92160567 -109.75 300.75 C-106.33899301 290.88446322 -102.79739137 281.06710832 -99.25 271.25 C-98.82019836 270.05957092 -98.82019836 270.05957092 -98.38171387 268.84509277 C-97.55202094 266.54752733 -96.72150897 264.25025996 -95.890625 261.953125 C-95.64397095 261.27044556 -95.39731689 260.58776611 -95.14318848 259.88439941 C-90.71166002 247.64869477 -90.71166002 247.64869477 -88.25 241.75 C-86.27472544 236.845356 -84.53999862 231.87058139 -82.8125 226.875 C-80.1803963 219.26564488 -77.41542641 211.7167343 -74.5625 204.1875 C-71.16319234 195.20795133 -67.93955688 186.18117313 -64.81542969 177.10253906 C-62.6626232 170.86048207 -60.4178716 164.66319422 -58.07299805 158.4909668 C-56.53788778 154.44870127 -55.06232848 150.39050174 -53.625 146.3125 C-51.27122999 139.66611738 -48.76316053 133.0834979 -46.20556641 126.51293945 C-43.97449891 120.72607221 -41.90005356 114.89239537 -39.86328125 109.03515625 C-35.80377899 97.36694402 -31.59174767 85.75527726 -27.36645508 74.14624023 C-26.06579359 70.57155197 -24.7681429 66.99578053 -23.47070312 63.41992188 C-19.27409039 51.87123129 -15.02086464 40.34949757 -10.61999512 28.87701416 C-8.32701358 22.89107084 -6.13234727 16.87964445 -4.0625 10.8125 C-3.4920419 9.15194601 -2.92048596 7.49176862 -2.34765625 5.83203125 C-1.99199585 4.79139526 -1.99199585 4.79139526 -1.62915039 3.72973633 C-1 2 -1 2 0 0 Z " fill="#E9E052" transform="translate(2840,197)"/>
<path d="M0 0 C74.58 0 149.16 0 226 0 C226 26.07 226 52.14 226 79 C183.76 79 141.52 79 98 79 C98 98.14 98 117.28 98 137 C135.29 137 172.58 137 211 137 C211 161.42 211 185.84 211 211 C173.71 211 136.42 211 98 211 C98 231.79 98 252.58 98 274 C140.24 274 182.48 274 226 274 C226 300.07 226 326.14 226 353 C151.42 353 76.84 353 0 353 C0 236.51 0 120.02 0 0 Z " fill="#E9E052" transform="translate(1940,197)"/>
<path d="M0 0 C70.95 0 141.9 0 215 0 C215 22.77 215 45.54 215 69 C172.43 69 129.86 69 86 69 C86 92.1 86 115.2 86 139 C123.62 139 161.24 139 200 139 C200 161.11 200 183.22 200 206 C162.38 206 124.76 206 86 206 C86 231.08 86 256.16 86 282 C128.57 282 171.14 282 215 282 C215 304.77 215 327.54 215 351 C144.05 351 73.1 351 0 351 C0 235.17 0 119.34 0 0 Z " fill="#3C3C3C" transform="translate(587,199)"/>
<path d="M0 0 C89.76 0 179.52 0 272 0 C272 22.77 272 45.54 272 69 C241.31 69 210.62 69 179 69 C179 162.06 179 255.12 179 351 C150.62 351 122.24 351 93 351 C93 257.94 93 164.88 93 69 C62.64 69 32.28 69 1 69 C0.67 68.67 0.34 68.34 0 68 C0 45.56 0 23.12 0 0 Z " fill="#3D3D3C" transform="translate(838,199)"/>
<path d="M0 0 C32.34 0 64.68 0 98 0 C98 116.16 98 232.32 98 352 C65.66 352 33.32 352 0 352 C0 235.84 0 119.68 0 0 Z " fill="#E9E052" transform="translate(2582,198)"/>
<path d="M0 0 C77.70967742 0 77.70967742 0 105 27 C124.70515879 49.26388836 127.39366543 76.49239486 126 105 C125.52025696 110.4854829 124.45176614 115.68268788 123 121 C122.82839355 121.63292969 122.65678711 122.26585937 122.47998047 122.91796875 C117.29912021 141.47461568 106.27948449 157.40687065 90 168 C61.66817702 183.56621998 32.60394089 182 0 182 C0 121.94 0 61.88 0 0 Z " fill="#3C3C3C" transform="translate(2312,282)"/>
<path d="M0 0 C2.16889483 3.25334224 3.15087634 6.11603958 4.37207031 9.82983398 C4.71511326 10.86608634 4.71511326 10.86608634 5.06508636 11.92327309 C5.8235116 14.21705563 6.57571782 16.51283086 7.328125 18.80859375 C7.86286664 20.42883566 8.39813387 22.0489042 8.93389893 23.66880798 C9.77186964 26.20266446 10.60949276 28.73663042 11.44549179 31.27113819 C14.1452345 39.45472387 16.88385459 47.62505128 19.62760925 55.79396439 C21.2123275 60.51498808 22.79175538 65.23778404 24.3719101 69.96033669 C25.71408316 73.97082809 27.05802996 77.98071073 28.40527344 81.98950195 C29.74572321 85.97838343 31.08183343 89.96869391 32.4148941 93.96005058 C32.91568942 95.45692101 33.41806079 96.95326517 33.92208099 98.44905281 C34.6146484 100.50511706 35.30164533 102.5629615 35.98730469 104.62133789 C36.37746765 105.78516495 36.76763062 106.948992 37.1696167 108.14808655 C38 111 38 111 38 114 C13.25 114 -11.5 114 -37 114 C-35.74324038 107.71620189 -34.60666075 102.32389437 -32.6015625 96.37890625 C-32.37048798 95.68869888 -32.13941345 94.99849152 -31.90133667 94.28736877 C-31.14840952 92.04372711 -30.38679419 89.80314474 -29.625 87.5625 C-29.09262904 85.98111515 -28.56073647 84.39956918 -28.02929688 82.81787109 C-25.27927868 74.64973196 -22.48799127 66.49591699 -19.6796875 58.34765625 C-19.41137115 57.56836258 -19.14305481 56.78906891 -18.86660767 55.98616028 C-17.58720415 52.27192068 -16.30347858 48.55930429 -15.01025391 44.84985352 C-12.40558525 37.34451168 -10.03191672 29.82652329 -7.89794922 22.16992188 C-6.65984008 17.79917444 -5.26233747 13.49182266 -3.8125 9.1875 C-3.55275391 8.40052734 -3.29300781 7.61355469 -3.02539062 6.80273438 C-1.12690747 1.12690747 -1.12690747 1.12690747 0 0 Z " fill="#3F3E3C" transform="translate(2896,304)"/>
<path d="M0 0 C0.33 0 0.66 0 1 0 C1 35.97 1 71.94 1 109 C-34.97 109 -70.94 109 -108 109 C-108 108.67 -108 108.34 -108 108 C-106.84886719 107.79246094 -105.69773437 107.58492187 -104.51171875 107.37109375 C-82.11348418 103.12524192 -61.2784701 95.2474404 -44 80 C-43.17113281 79.29101562 -42.34226562 78.58203125 -41.48828125 77.8515625 C-18.54998191 57.82885098 -4.02072972 30.22479581 0 0 Z " fill="#000000" transform="translate(3249,641)"/>
<path d="M0 0 C0.33 0 0.66 0 1 0 C1.20753906 1.15113281 1.41507812 2.30226563 1.62890625 3.48828125 C5.87475808 25.88651582 13.7525596 46.7215299 29 64 C29.70898438 64.82886719 30.41796875 65.65773438 31.1484375 66.51171875 C51.17114902 89.45001809 78.77520419 103.97927028 109 108 C109 108.33 109 108.66 109 109 C73.03 109 37.06 109 0 109 C0 73.03 0 37.06 0 0 Z " fill="#000000" transform="translate(0,641)"/>
<path d="M0 0 C35.97 0 71.94 0 109 0 C109 35.97 109 71.94 109 109 C108.67 109 108.34 109 108 109 C107.79246094 107.84886719 107.58492187 106.69773437 107.37109375 105.51171875 C103.12524192 83.11348418 95.2474404 62.2784701 80 45 C79.29101562 44.17113281 78.58203125 43.34226563 77.8515625 42.48828125 C57.82885098 19.54998191 30.22479581 5.02072972 0 1 C0 0.67 0 0.34 0 0 Z " fill="#000000" transform="translate(3141,0)"/>
<path d="M0 0 C35.97 0 71.94 0 109 0 C109 0.33 109 0.66 109 1 C107.84886719 1.20753906 106.69773437 1.41507812 105.51171875 1.62890625 C83.11348418 5.87475808 62.2784701 13.7525596 45 29 C44.17113281 29.70898438 43.34226563 30.41796875 42.48828125 31.1484375 C19.54998191 51.17114902 5.02072972 78.77520419 1 109 C0.67 109 0.34 109 0 109 C0 73.03 0 37.06 0 0 Z " fill="#000000" transform="translate(0,0)"/>
</svg>
