<?xml version="1.0" encoding="UTF-8"?>
<svg version="1.1" xmlns="http://www.w3.org/2000/svg" width="1130" height="1188">
<path d="M0 0 C4.83530854 0.00713358 9.67055583 -0.0091088 14.50584483 -0.02199733 C23.91873335 -0.04339603 33.3314999 -0.04357603 42.74440464 -0.03537179 C50.3918176 -0.02902698 58.03919544 -0.03024934 65.68660808 -0.03664386 C66.78208749 -0.03754552 67.87756691 -0.03844717 69.00624268 -0.03937615 C71.23252514 -0.04122758 73.45880759 -0.04309014 75.68509004 -0.04496371 C96.44507561 -0.0614515 117.20499273 -0.05289357 137.96497414 -0.03597813 C156.95423987 -0.02122228 175.94334821 -0.03600789 194.93259373 -0.06474829 C214.48519085 -0.09411955 234.03771525 -0.10512546 253.59033346 -0.09556609 C255.7990709 -0.09454361 258.00780835 -0.093549 260.21654582 -0.09258258 C261.30302374 -0.09210619 262.38950166 -0.0916298 263.50890316 -0.09113898 C271.15936806 -0.08897549 278.80976385 -0.09877305 286.46021342 -0.11335361 C295.76354692 -0.13084028 305.06667835 -0.13080915 314.37000379 -0.10800195 C319.11428158 -0.09683824 323.85820275 -0.09374686 328.60246539 -0.11230266 C332.94275246 -0.12906135 337.28237041 -0.12281993 341.62261376 -0.09808587 C343.19369626 -0.09318796 344.76483231 -0.096758 346.33587018 -0.10957331 C348.46963796 -0.12572644 350.60108297 -0.11114261 352.73474574 -0.08885467 C353.92002872 -0.08858498 355.10531169 -0.08831529 356.32651234 -0.08803743 C360.69732417 0.75287836 362.62011385 2.23430854 365.57815623 5.53755772 C366.18568937 8.30223742 366.38797957 10.20606236 366.33040977 12.96362126 C366.33883081 13.7057118 366.34725186 14.44780234 366.35592809 15.21238047 C366.37687963 17.70746876 366.35496057 20.2003385 366.33332896 22.69539464 C366.33952436 24.49869475 366.34833966 26.30198746 366.35955435 28.10526335 C366.38271615 33.06704071 366.3683192 38.02811386 366.3478452 42.9898771 C366.33224574 48.33830495 366.35112411 53.68662463 366.36564708 59.03504002 C366.38850474 69.51509489 366.37897586 79.99488351 366.35814621 90.47493315 C366.3418798 98.99023788 366.33765833 107.50546983 366.3421123 116.02078831 C366.34274298 117.23150011 366.34337365 118.44221191 366.34402344 119.68961194 C366.34536946 122.14894463 366.34674903 124.60827731 366.34816179 127.06760997 C366.36010642 150.14326516 366.3360123 173.21877419 366.29914371 196.2943961 C366.26824966 216.10580776 366.26587882 235.91705108 366.28494334 255.72847569 C366.30704255 278.72003554 366.31321135 301.71150097 366.29262072 324.70306551 C366.29045772 327.15348604 366.28830862 329.60390658 366.28617358 332.05432713 C366.28510722 333.26006482 366.28404085 334.46580251 366.28294217 335.7080777 C366.27646547 344.21577434 366.28124646 352.7234225 366.29019809 361.23111546 C366.30072074 371.59542689 366.29327443 381.95954073 366.2627423 392.32381558 C366.24758697 397.61456694 366.24048466 402.90500607 366.25493312 408.19576657 C366.267912 413.03553192 366.25794766 417.87467761 366.22937439 422.71437103 C366.22307502 424.46866345 366.22527104 426.22301035 366.23664483 427.97727722 C366.25081057 430.3560989 366.23440985 432.73279952 366.21015525 435.11149418 C366.22728522 436.14129616 366.22728522 436.14129616 366.24476126 437.19190222 C366.16826139 441.00292864 365.63794033 442.46571209 363.16365629 445.43918669 C353.37189569 453.38610075 329.49088433 449.75447677 317.43515086 448.85585606 C305.53894328 447.53049721 294.29745302 442.79221754 283.3706367 438.131796 C279.83619525 436.62617174 276.25544254 435.28424631 272.64456248 433.97115147 C260.38840709 429.40473013 250.82078696 423.80768247 241.18264842 414.97408116 C239.00121678 413.02101606 236.67212614 411.28998948 234.32815623 409.53755772 C222.28781494 399.92960861 212.65960484 387.11484433 203.95315623 374.53755772 C203.28787913 373.57692418 203.28787913 373.57692418 202.60916209 372.59688389 C196.49057201 363.63117477 191.20636416 354.25881074 186.26565623 344.60005772 C185.48931834 343.14696202 185.48931834 343.14696202 184.69729686 341.66451085 C183.20471304 338.73556448 181.84926022 335.79590153 180.55493236 332.77620518 C179.87093739 331.20857514 179.15691605 329.65386316 178.42096019 328.10994542 C167.61976209 304.92034058 169.3870069 280.16001332 169.61319041 255.15529454 C169.67716567 247.01977412 169.67029115 238.88394511 169.66981578 230.74822056 C169.66959507 226.43531947 169.68971928 222.12327521 169.72636485 217.81053746 C169.73575728 215.8564263 169.74503587 213.90231458 169.75418162 211.94820225 C169.77215045 210.62215725 169.77215045 210.62215725 169.79048228 209.26932347 C169.81274592 203.15685608 169.81274592 203.15685608 167.57815623 197.53755772 C164.09462304 194.11243398 161.13632414 194.12314064 156.36608958 194.0287534 C155.63744783 194.01066768 154.90880608 193.99258196 154.15808427 193.97394818 C151.71272993 193.91744678 149.26756387 193.88247201 146.82180858 193.84786046 C145.0662401 193.81267592 143.31069099 193.77651317 141.55516124 193.73944676 C135.75843613 193.62425613 129.96149349 193.54364362 124.16409373 193.47115147 C123.16776691 193.45866533 122.17144009 193.44617919 121.14492154 193.43331468 C111.6773371 193.31792337 102.20966376 193.21914749 92.7416141 193.15129578 C81.85452587 193.07200285 70.97180689 192.95230562 60.0869453 192.71309483 C-2.41449046 191.19050735 -2.41449046 191.19050735 -63.00778127 204.69771397 C-63.66797529 204.92882964 -64.32816931 205.15994532 -65.00836921 205.39806449 C-82.39790741 211.54358106 -98.065724 219.90815852 -113.60708928 229.77759182 C-117.45842128 232.18569279 -121.37650082 234.4718794 -125.30534863 236.75067818 C-133.00948686 241.27594263 -139.17551781 245.38219523 -144.39450002 252.72505772 C-146.824615 256.09631549 -149.56670041 259.02681591 -152.42184377 262.03755772 C-157.68804227 267.66264529 -162.67628179 273.46219541 -167.42184377 279.53755772 C-167.89170705 280.12351719 -168.36157033 280.70947667 -168.84567189 281.31319249 C-172.67595206 286.21359064 -175.49931568 291.24740847 -178.17184377 296.85005772 C-179.0372352 298.62307091 -179.90447087 300.39518495 -180.77340627 302.16646397 C-181.42937795 303.50668614 -181.42937795 303.50668614 -182.09860158 304.8739835 C-184.52730284 309.76275301 -187.09765821 314.57647275 -189.6708672 319.39034092 C-190.44342235 320.84279118 -191.20561802 322.30078804 -191.95862031 323.76347077 C-192.96956192 325.68008843 -194.02488067 327.57371638 -195.1148417 329.44652474 C-202.66405333 343.17804373 -206.46516959 358.19102933 -210.31320119 373.28145421 C-210.50244557 374.0199139 -210.69168996 374.7583736 -210.88666902 375.51921086 C-219.11192428 407.81950208 -220.75708417 438.75543478 -220.24849014 471.94097945 C-220.13510398 479.60539364 -220.12944732 487.26910274 -220.12691953 494.93422275 C-220.12016706 508.61074496 -220.04225618 522.28576149 -219.911834 535.96162999 C-219.78636054 549.14158553 -219.68658836 562.32124118 -219.62667775 575.50166905 C-219.62293684 576.32136794 -219.61919592 577.14106682 -219.61534164 577.98560507 C-219.57509614 586.95718706 -219.5416933 595.92878506 -219.51293397 604.90041077 C-219.510373 605.69028148 -219.50781202 606.48015219 -219.50517344 607.29395838 C-219.50134842 608.47407133 -219.50134842 608.47407133 -219.49744612 609.67802495 C-219.49490556 610.46148331 -219.49236499 611.24494167 -219.48974744 612.0521412 C-219.48472266 613.62418538 -219.47982394 615.19622998 -219.47505309 616.76827496 C-219.44689338 625.92660661 -219.3987158 635.08431062 -219.3122827 644.24228751 C-219.25848402 649.95485609 -219.21734204 655.66741532 -219.1857324 661.38014967 C-219.16682617 664.65807572 -219.13868204 667.9354795 -219.09643674 671.21319783 C-218.86584902 689.37187975 -219.56220903 706.82165397 -227.29684377 723.60005772 C-227.86822072 724.88094273 -227.86822072 724.88094273 -228.45114064 726.18770421 C-237.86624764 746.80819267 -249.63800294 766.15809369 -261.51608205 785.41939366 C-263.1490702 788.0912518 -264.74946747 790.77644312 -266.32418752 793.48287022 C-280.43140557 817.70094921 -296.26673781 841.37361983 -313.42184377 863.53755772 C-313.90363088 864.16130284 -314.38541799 864.78504796 -314.8818047 865.42769444 C-317.5933216 868.9261587 -320.33678058 872.39778965 -323.09518361 875.85933506 C-324.46456393 877.59159864 -325.81432727 879.33770388 -327.16012502 881.08833897 C-332.46654144 887.97064006 -337.98458312 894.51505603 -343.92575002 900.85787022 C-346.04096298 903.12866222 -348.08905793 905.43284815 -350.10934377 907.78755772 C-358.50902558 917.4471918 -368.22487122 925.62613449 -378.04684377 933.78755772 C-378.77129689 934.39857335 -379.49575002 935.00958897 -380.24215627 935.63912022 C-389.76167046 943.53755772 -389.76167046 943.53755772 -395.98434377 943.53755772 C-400.26403396 942.29255694 -401.71065949 941.07558423 -404.42184377 937.53755772 C-405.15113489 934.35671362 -405.09669646 931.24819939 -405.0566361 927.9960376 C-405.06450249 927.02517386 -405.07236889 926.05431013 -405.08047366 925.05402628 C-405.10082471 921.78078288 -405.08536783 918.50867635 -405.07022023 915.23541844 C-405.07740966 912.87261811 -405.08677379 910.50982356 -405.09813261 908.14703959 C-405.11777636 902.99896917 -405.12177379 897.85112795 -405.11207891 892.70303929 C-405.097698 885.04612022 -405.11179446 877.38943838 -405.13145308 869.73254062 C-405.16755695 855.25338536 -405.16979494 840.77434324 -405.16182694 826.29515439 C-405.15586795 815.09800943 -405.15909003 803.90090041 -405.16879964 792.70375836 C-405.17015894 791.09457925 -405.17151612 789.48540013 -405.17287119 787.87622102 C-405.17492372 785.45106771 -405.17698226 783.02591441 -405.17906278 780.60076112 C-405.19821064 758.03604263 -405.20724862 735.47133788 -405.1951859 712.90661347 C-405.19473235 712.05535819 -405.1942788 711.2041029 -405.19381151 710.32705201 C-405.19007169 703.41469073 -405.1860716 696.5023296 -405.18205004 689.58996848 C-405.16663243 662.70222765 -405.18277684 635.8146731 -405.22457814 608.92696202 C-405.27151671 578.69209618 -405.29490378 548.45734389 -405.28381491 518.22243994 C-405.28270364 514.98817525 -405.28166768 511.75391054 -405.28067708 508.51964581 C-405.28041654 507.72334456 -405.280156 506.92704331 -405.27988756 506.10661173 C-405.27643619 494.14911481 -405.2909445 482.19172791 -405.31478047 470.23425686 C-405.34192826 456.59605541 -405.3439204 442.9581025 -405.3139194 429.319902 C-405.29928752 422.3746624 -405.29525695 415.42986105 -405.32357335 408.48465168 C-405.43142086 379.27817888 -404.54971768 351.93797311 -397.42184377 323.53755772 C-396.55227702 319.82373847 -395.71923752 316.10157437 -394.87759113 312.38134629 C-385.78145783 273.5305288 -368.45028811 238.29834802 -349.42184377 203.53755772 C-348.80212697 202.40431065 -348.18241017 201.27106358 -347.54391408 200.10347569 C-337.6596082 182.12469473 -327.37055009 164.49908186 -314.42184377 148.53755772 C-313.66129689 147.58494053 -312.90075002 146.63232335 -312.11715627 145.65083897 C-307.75342694 140.23770069 -303.22299717 135.01127097 -298.53903127 129.87349522 C-296.63104174 127.76837024 -294.77137307 125.63142138 -292.92184377 123.47505772 C-286.62234576 116.25900458 -279.71744849 109.73004696 -272.42184377 103.53755772 C-271.46535939 102.71513585 -270.50887502 101.89271397 -269.52340627 101.04537022 C-261.66549554 94.31261628 -253.62603046 87.84282692 -245.42184377 81.53755772 C-244.78343556 81.04610264 -244.14502736 80.55464756 -243.48727345 80.04829991 C-215.48529773 58.56676451 -185.30474006 42.39674763 -152.60934377 29.22505772 C-151.87566579 28.92810002 -151.14198781 28.63114232 -150.38607717 28.32518589 C-140.19810366 24.21653859 -129.9606513 20.63214839 -119.42184377 17.53755772 C-118.58942159 17.29079289 -117.75699941 17.04402806 -116.89935231 16.7897855 C-111.13761838 15.08671471 -105.36245808 13.43815208 -99.5746758 11.8258878 C-97.58549753 11.26692261 -95.59903101 10.69819787 -93.61569142 10.11885655 C-81.24181209 6.51041102 -68.91251904 3.89584946 -56.10623097 2.37973607 C-55.0207844 2.25040878 -55.0207844 2.25040878 -53.91340962 2.11846883 C-35.95994734 0.03630969 -18.05212447 -0.04332294 0 0 Z " fill="#E9E052" transform="translate(404.42184376716614,234.462442278862)"/>
<path d="M0 0 C1.82253296 0.62793457 1.82253296 0.62793457 3.68188477 1.26855469 C4.63407394 1.59043762 4.63407394 1.59043762 5.60549927 1.91882324 C20.77459351 7.05745675 35.53064825 13.2537897 50.22125244 19.61592102 C53.46123949 21.01152784 56.67581874 22.31406264 60.00585938 23.48779297 C72.29214984 27.86322624 82.40522759 35.19522286 93.05688477 42.58105469 C94.95765835 43.88447938 96.85934655 45.18657135 98.76196289 46.48730469 C101.52854904 48.37883576 104.2922972 50.27375572 107.04660034 52.18313599 C111.44573676 55.23163114 115.87423246 58.1326709 120.45141602 60.90917969 C129.1679232 66.69951394 136.35674709 74.52548906 143.70532227 81.91064453 C146.34623731 84.55785207 149.01261795 87.17732013 151.68188477 89.79589844 C161.50387034 99.54595054 169.88596993 109.32677638 177.08680725 121.15371704 C179.36531967 124.79971642 181.84276074 128.30903706 184.30688477 131.83105469 C185.59554666 133.68163976 186.88019411 135.53317009 188.14355469 137.40112305 C188.93471494 138.56603995 189.74373011 139.71911952 190.57373047 140.85668945 C195.3777934 147.83014274 197.90612969 155.96243491 200.68188477 163.89355469 C200.96562958 164.69995392 201.24937439 165.50635315 201.54171753 166.33718872 C222.98679163 227.82984786 220.69084534 283.14467099 204.81665039 345.37255859 C204.01798411 348.50610046 203.22728141 351.64148529 202.44360352 354.77880859 C198.34759817 371.16421962 194.30353027 387.31742619 187.42663574 402.80352783 C185.83116108 406.42912934 184.3262889 410.09153081 182.80828857 413.75009155 C181.17662186 417.67364276 179.52274294 421.58763569 177.86791992 425.50146484 C176.6033335 428.49403913 175.34366437 431.48865343 174.08422852 434.48339844 C173.26811484 436.41711569 172.45171915 438.35071395 171.63500977 440.28417969 C171.26514954 441.16446838 170.89528931 442.04475708 170.51422119 442.95172119 C166.78250313 451.75538489 162.60060572 459.6490539 157.19750977 467.54980469 C156.6022348 468.42892517 156.00695984 469.30804565 155.39364624 470.21380615 C153.47345931 473.04768555 151.54665207 475.87698686 149.61938477 478.70605469 C146.98493073 482.58514995 144.35299965 486.4659546 141.72094727 490.34667969 C140.75667313 491.76675323 140.75667313 491.76675323 139.7729187 493.21551514 C136.191548 498.49524939 132.63922122 503.79155169 129.14282227 509.12792969 C128.42191406 510.22556641 127.70100586 511.32320312 126.95825195 512.45410156 C125.69957546 514.37810531 124.44704237 516.30615051 123.20239258 518.23925781 C118.48118487 525.43847799 113.08221971 531.02675126 106.30688477 536.33105469 C100.47153057 541.02505861 95.03821969 546.09069371 89.57641602 551.20996094 C84.89343533 555.5984825 80.04521519 559.7772514 75.16235352 563.94042969 C74.57752197 564.43986084 73.99269043 564.93929199 73.39013672 565.45385742 C72.16221702 566.50189808 70.93287225 567.54827125 69.70214844 568.59301758 C66.07457409 571.68745061 62.61025722 574.88982526 59.18188477 578.20605469 C52.38453374 584.45281027 44.49951381 588.98776454 36.65307617 593.79052734 C33.48741423 595.75273687 30.39601707 597.81390826 27.30688477 599.89355469 C26.70473145 600.28752441 26.10257813 600.68149414 25.48217773 601.08740234 C21.71534019 603.56384675 18.10112318 606.16409583 14.52172852 608.90527344 C-4.94731994 623.25178978 -27.19909973 630.6860946 -49.83500671 638.68449402 C-54.5785149 640.36326495 -59.29949405 642.06278835 -63.97610092 643.91996956 C-119.68093768 665.94427475 -173.11509917 667.36732888 -232.3083503 666.88617561 C-244.15188323 666.7925116 -255.99509929 666.78422447 -267.83894604 666.7782282 C-288.95181071 666.7650422 -310.06379656 666.68276521 -331.17626953 666.55737305 C-351.62292906 666.4360351 -372.0691062 666.35871967 -392.51611328 666.33178711 C-393.7843925 666.33010787 -395.05267172 666.32842863 -396.35938365 666.3266985 C-401.45876238 666.32002795 -406.55814117 666.31340452 -411.65752012 666.30690427 C-431.24924164 666.28065461 -450.84088564 666.22247811 -470.43251406 666.15793857 C-476.33299373 666.1385555 -482.23347098 666.12050279 -488.13396382 666.10560393 C-500.49349197 666.0740918 -512.85277872 666.03161528 -525.21210659 665.95275816 C-530.31482889 665.92034224 -535.41737533 665.89402762 -540.52019691 665.88475037 C-545.18559427 665.87597386 -549.85049962 665.84874608 -554.51571029 665.80645946 C-556.2056894 665.79431974 -557.89573247 665.78890491 -559.58575416 665.79076912 C-561.87690132 665.7922366 -564.16654304 665.76933764 -566.45747471 665.74014568 C-567.7312433 665.73353347 -569.00501189 665.72692127 -570.31737953 665.72010869 C-574.20568485 665.11683169 -575.86080885 663.94630578 -578.63061523 661.20605469 C-580.11888502 658.22951512 -579.77159099 655.19430703 -579.76483631 651.93049145 C-579.76718854 651.16822521 -579.76954077 650.40595897 -579.77196428 649.62059376 C-579.77867673 647.03954421 -579.77819539 644.45854475 -579.77778625 641.87748718 C-579.78108348 640.01903879 -579.78480874 638.16059111 -579.78892773 636.30214435 C-579.79897185 631.17420525 -579.80266839 626.04627786 -579.80531704 620.91833031 C-579.80921292 615.39605911 -579.81879169 609.87379724 -579.82752991 604.35153198 C-579.8473138 591.00554636 -579.8573626 577.65955995 -579.8662577 564.31356332 C-579.87063712 558.03467761 -579.87600479 551.75579276 -579.88124657 545.47690773 C-579.89826016 524.61512659 -579.9127807 503.75334561 -579.91999531 482.89155865 C-579.92047007 481.54199842 -579.92094596 480.1924382 -579.92142297 478.84287797 C-579.92165935 478.17360504 -579.92189572 477.5043321 -579.92213926 476.81477817 C-579.92334048 473.42380067 -579.92455593 470.03282319 -579.92578125 466.6418457 C-579.9260214 465.96889122 -579.92626155 465.29593673 -579.92650898 464.60258968 C-579.9344045 442.77656262 -579.95784122 420.95058985 -579.99033719 399.12458651 C-580.02461558 376.05939859 -580.04434342 352.99423611 -580.04763955 329.92901927 C-580.04980832 317.35162357 -580.05861052 304.77430767 -580.08410072 292.19693565 C-580.10575243 281.48858362 -580.11388545 270.78033078 -580.10413394 260.07195934 C-580.09957326 254.60505413 -580.10157772 249.13835379 -580.12089539 243.67147636 C-580.13841396 238.67071743 -580.13762194 233.67031455 -580.12199809 228.66955242 C-580.11960474 226.85661036 -580.12403415 225.04364437 -580.13582674 223.23073908 C-580.15082804 220.77310184 -580.14135598 218.31674552 -580.12559986 215.85914135 C-580.13582207 215.14928832 -580.14604428 214.43943529 -580.15657625 213.70807156 C-580.08967029 208.95216258 -578.98963009 206.54921917 -575.63061523 203.20605469 C-559.93065822 195.35607618 -532.06294784 202.22364943 -516.24438477 207.31787109 C-490.58677337 216.03656998 -467.17570089 227.82224387 -447.43530273 246.54980469 C-444.83608756 249.01145694 -442.18652767 251.39665708 -439.50561523 253.76855469 C-411.58887903 278.91595066 -380.80591428 321.35101624 -378.75366497 360.36816597 C-378.62302025 365.73665368 -378.66422734 371.09485752 -378.73608398 376.46386719 C-378.73618293 378.79556584 -378.73230276 381.12726765 -378.72468567 383.45895386 C-378.71338266 389.51691398 -378.74654736 395.57370533 -378.79260254 401.63146973 C-378.85987207 411.38619518 -378.86167803 421.14105106 -378.85592079 430.89596176 C-378.86100615 434.28696904 -378.88784054 437.67727785 -378.91777039 441.06814575 C-378.92440644 443.13641189 -378.93052339 445.20467978 -378.93603516 447.27294922 C-378.95704033 448.67855103 -378.95704033 448.67855103 -378.97846985 450.11254883 C-378.97300581 454.9538558 -378.86420733 458.32169852 -375.63061523 462.20605469 C-371.67497662 464.8431471 -368.16579499 464.61079778 -363.56030273 464.73339844 C-362.58451767 464.7668486 -361.6087326 464.80029877 -360.6033783 464.83476257 C-357.23769568 464.94723599 -353.87174501 465.04543443 -350.50561523 465.14355469 C-348.07810562 465.22091112 -345.650616 465.29889718 -343.22314453 465.37744141 C-335.84637819 465.61194328 -328.46919729 465.83034458 -321.09185791 466.04595947 C-316.1299982 466.19105142 -311.16821663 466.33869429 -306.20644379 466.4867239 C-292.14339024 466.90627426 -278.0801561 467.31940908 -264.01676178 467.72737503 C-261.63514151 467.79647128 -259.25352427 467.86567236 -256.8719101 467.93497849 C-249.98009049 468.13541286 -243.08821173 468.33354898 -236.19622993 468.52832985 C-234.07088898 468.58865901 -231.9455665 468.64964283 -229.82026482 468.71133995 C-208.81015086 469.84041341 -208.81015086 469.84041341 -187.97045898 467.95605469 C-187.22524994 467.82255615 -186.48004089 467.68905762 -185.71224976 467.55151367 C-183.32777906 467.11810293 -180.94795806 466.66414917 -178.56811523 466.20605469 C-177.74378998 466.05088379 -176.91946472 465.89571289 -176.07015991 465.73583984 C-147.80091518 460.39317009 -120.0543858 452.93262854 -94.63061523 439.20605469 C-94.02910645 438.88523926 -93.42759766 438.56442383 -92.80786133 438.23388672 C-78.74600476 430.68335615 -66.63280002 421.62549507 -55.11938477 410.61376953 C-52.89622577 408.51164838 -50.60687737 406.48623912 -48.31811523 404.45605469 C-40.3115816 397.25017442 -33.29931955 389.67370501 -26.63061523 381.20605469 C-25.56713867 379.88541016 -25.56713867 379.88541016 -24.48217773 378.53808594 C11.28191219 332.76779756 24.39723383 274.88682459 29.36938477 218.20605469 C29.44286133 217.37283691 29.51633789 216.53961914 29.59204102 215.68115234 C33.10081472 174.12644674 25.91097096 133.96896685 14.36938477 94.20605469 C14.17666992 93.53795776 13.98395508 92.86986084 13.78540039 92.18151855 C8.5385995 74.07672066 1.65522696 57.66859323 -7.81079102 41.34619141 C-9.68210546 38.11720746 -11.51782792 34.87009772 -13.34545898 31.61621094 C-16.02159516 26.85246345 -18.71703991 22.10039712 -21.43237305 17.35888672 C-21.82779297 16.64845215 -22.22321289 15.93801758 -22.63061523 15.20605469 C-23.00541016 14.53429199 -23.38020508 13.8625293 -23.76635742 13.17041016 C-25.19461876 9.9241416 -25.20417389 6.64740661 -24.63061523 3.20605469 C-18.59884725 -6.24371515 -9.16866409 -3.00892347 0 0 Z " fill="#3C3C3C" transform="translate(908.630615234375,279.7939453125)"/>
<path d="M0 0 C0.95732873 -0.00902024 1.91465746 -0.01804048 2.90099615 -0.02733406 C6.128549 -0.05034455 9.35442245 -0.03038003 12.58197784 -0.01079082 C14.91204072 -0.01841635 17.24209627 -0.02865581 19.57213736 -0.04129237 C25.31789495 -0.06553117 31.06316243 -0.06170982 36.80893908 -0.04617769 C43.69238534 -0.02911659 50.57563031 -0.04680044 57.45905656 -0.06551662 C70.95970555 -0.10103945 84.46019279 -0.10193839 97.9608717 -0.08808468 C109.80559657 -0.07597114 121.65025993 -0.07461669 133.49498749 -0.08399296 C134.67449958 -0.08489811 134.67449958 -0.08489811 135.8778402 -0.08582155 C139.07054883 -0.08827165 142.26325743 -0.09075325 145.45596599 -0.09329385 C175.44807827 -0.11688834 205.4400851 -0.10459978 235.43218871 -0.07694834 C261.97100502 -0.05271915 288.50960964 -0.06209108 315.04840851 -0.09982586 C344.91391384 -0.14219472 374.77929615 -0.16108311 404.64483118 -0.14480132 C407.84654138 -0.14312347 411.0482516 -0.14151052 414.24996185 -0.13993168 C415.03820116 -0.13952464 415.82644046 -0.1391176 416.6385658 -0.13869822 C428.43105918 -0.1330333 440.22344882 -0.14479996 452.01592255 -0.16566181 C465.49115228 -0.18943123 478.96612295 -0.18740849 492.44133639 -0.15374867 C499.29351031 -0.13726009 506.1451819 -0.13161823 512.99734306 -0.15734768 C557.63565742 -0.31223004 601.22016168 3.71372245 644.89655304 13.13284016 C647.14829962 13.60472881 649.40009104 14.07640355 651.65192413 14.54787922 C668.86383739 18.19708754 685.81252041 22.4269451 702.58405304 27.75784016 C703.52603546 28.05077961 704.46801788 28.34371906 705.43854523 28.64553547 C727.40145489 35.54862343 747.94914392 45.83002367 767.58405304 57.75784016 C768.4942923 58.30843098 769.40453156 58.8590218 770.34235382 59.42629719 C782.62868514 66.91004238 794.17544542 74.97484626 805.37653351 83.99465656 C808.41529581 86.42176797 811.4983666 88.78946985 814.58063507 91.16091633 C830.96293951 103.7835458 846.24214209 117.34687733 860.89655304 131.94534016 C861.74483673 132.788951 862.59312042 133.63256184 863.46710968 134.50173664 C868.37958378 139.42678327 873.06735146 144.46913853 877.58405304 149.75784016 C878.47229103 150.76790984 879.36153867 151.77709299 880.25202179 152.78518391 C895.1155337 169.95311627 906.34464282 189.1256312 917.58405304 208.75784016 C918.51878814 210.37772458 919.45365804 211.99753124 920.38874054 213.61721516 C940.67853323 248.97810256 952.03893644 286.42396096 962.02341461 325.72948933 C962.79917408 328.77364438 963.59024214 331.77640747 964.58405304 334.75784016 C964.9814445 338.9701896 964.83369463 341.26780296 962.89655304 345.07034016 C959.72511895 348.75606085 957.44474966 349.42704965 952.77155304 350.25784016 C944.46399672 348.95469407 938.57191342 340.81918397 932.94074249 335.07912922 C928.53830396 330.62075493 923.99018809 326.63338169 919.06842804 322.75002766 C916.78530998 320.91922544 914.65901762 319.00446405 912.52155304 317.00784016 C884.89491842 292.27635907 850.1118096 275.81140665 816.58405304 260.75784016 C815.93740692 260.46739826 815.2907608 260.17695637 814.62451935 259.8777132 C778.62602819 243.76659631 740.57600996 231.27532182 701.92780304 223.35159016 C701.21017162 223.20371241 700.49254021 223.05583466 699.75316238 222.90347576 C682.79119217 219.43120215 665.71589892 216.85684247 648.58069611 214.41116047 C645.422942 213.95737096 642.26701183 213.49154287 639.11098862 213.02589321 C581.83229568 204.58680305 524.83143991 201.39668763 466.9643405 200.51127003 C459.30991769 200.39363743 451.65574214 200.26240201 444.0015522 200.13060863 C430.32890796 199.8954746 416.65612933 199.66955058 402.98322296 199.45022297 C389.80444847 199.23879336 376.62573175 199.02428296 363.44709015 198.80471516 C362.63180588 198.79113375 361.81652162 198.77755235 360.97653177 198.76355939 C352.04333488 198.61465399 343.11015349 198.46483678 334.17698383 198.31430721 C333.38864454 198.30102658 332.60030524 198.28774595 331.78807688 198.27406288 C325.3326265 198.16530605 325.3326265 198.16530605 322.32624719 198.11456628 C313.18333667 197.96030086 304.04039156 197.80869361 294.89735273 197.66221894 C289.17090335 197.57044974 283.44448558 197.47686656 277.71808746 197.38195299 C274.43565426 197.32765002 271.15320925 197.2746022 267.87072372 197.22354794 C255.02494202 197.02338659 242.18637679 196.75471748 229.34755707 196.27752399 C227.75379888 196.21963438 227.75379888 196.21963438 226.12784356 196.16057527 C218.04514999 195.83960922 210.13691896 195.12763496 202.14655304 193.82034016 C201.17962021 193.66569798 201.17962021 193.66569798 200.19315338 193.50793171 C149.46875939 185.26524632 101.71261874 163.68725858 63.80280304 128.79299641 C61.80706205 126.96239596 59.77174693 125.19947533 57.70905304 123.44534016 C47.15304494 114.15859155 38.39108953 104.13775482 30.08747101 92.80813313 C28.72482187 90.94981427 27.34633214 89.10464795 25.96295929 87.26174641 C15.38958235 73.01522565 6.84546827 57.54791173 -1.29094696 41.82034016 C-1.60373596 41.2164043 -1.91652496 40.61246845 -2.23879242 39.99023151 C-15.7715624 13.7823929 -15.7715624 13.7823929 -14.41594696 6.75784016 C-10.46188531 0.33395846 -7.27704799 -0.11239056 0 0 Z " fill="#3C3C3C" transform="translate(154.41594696044922,-0.7578401565551758)"/>
</svg>
